<svg xmlns="http://www.w3.org/2000/svg" xmlns:xlink="http://www.w3.org/1999/xlink" version="1.1" style="background: #ffffff" viewBox="0 0 5000 2546"><style id="v-3" type="text/css">        .joint-element .scalable * {            vector-effect: non-scaling-stroke;        }    </style><defs joint-selector="defs"><marker id="v-2-527367903" orient="auto" overflow="visible" markerUnits="userSpaceOnUse"><path id="v-111" stroke="#cccccc" fill="#cccccc" transform="rotate(180)" d="M 20 -10 0 0 20 10 Z"></path></marker><marker id="v-21252848929" orient="auto" overflow="visible" markerUnits="userSpaceOnUse"><path id="v-2739" stroke="#444444" fill="#444444" transform="rotate(180)" d="M 20 -10 0 0 20 10 Z"></path></marker></defs><g  joint-selector="layers" transform="matrix(1,0,0,1,0,0)"><g style="pointer-events: none;" ></g><g ></g><g  style="user-select: none;"><!--z-index:0--><!--z-index:1--><!--z-index:2--><!--z-index:3--><!--z-index:4--><!--z-index:5--><!--z-index:6--><!--z-index:7--><!--z-index:8--><!--z-index:9--><!--z-index:10--><!--z-index:11--><!--z-index:12--><!--z-index:13--><!--z-index:14--><!--z-index:15--><!--z-index:16--><!--z-index:17--><!--z-index:18--><!--z-index:19--><!--z-index:20--><!--z-index:21--><!--z-index:22--><!--z-index:23--><!--z-index:24--><!--z-index:25--><!--z-index:26--><!--z-index:27--><!--z-index:28--><!--z-index:29--><!--z-index:30--><g   id="j_305"  transform="translate(20,2502)"><g id="v-3554"><text  id="v-3555" font-size="24px" xml:space="preserve" y="0.8em" font-weight="normal" text-anchor="start" fill="#444444" pointer-events="none" display="block" font-family="Tahoma, Verdana, Helvetica, Arial"><tspan  dy="0">Wednesday, June 17, 2026 at 6:07 PM Brasilia Standard Time</tspan></text></g></g><!--z-index:31--><g   id="j_304"  transform="translate(20,2468)"><g id="v-3552"><text  id="v-3553" font-size="24px" xml:space="preserve" y="0.8em" font-weight="normal" text-anchor="start" fill="#444444" pointer-events="none" display="block" font-family="Tahoma, Verdana, Helvetica, Arial"><tspan  dy="0">Diagrama de Componentes - Matching/Dispatch Service</tspan></text></g></g><!--z-index:32--><g   id="j_303"  transform="translate(20,2422)"><g id="v-3550"><text  id="v-3551" font-size="36px" xml:space="preserve" y="0.8em" font-weight="normal" text-anchor="start" fill="#444444" pointer-events="none" display="block" font-family="Tahoma, Verdana, Helvetica, Arial"><tspan  dy="0">Component View: Plataforma de Mobilidade - Núcleo de Matching e Pricing - Matching/Dispatch Service</tspan></text></g></g><!--z-index:33--><g   id="j_307"  transform="translate(199,143)" style="; opacity: 1;"><g id="v-3569"><rect  id="v-3570" width="4600" height="2146" rx="0" ry="0" stroke-width="2" pointer-events="none" stroke="#0f5eaa" fill="#ffffff" opacity="1" stroke-dasharray=""></rect><text  id="v-3571" font-size="33.599999999999994px" xml:space="preserve" y="2107" font-weight="bold" text-anchor="start" pointer-events="visible" font-family="Tahoma, Verdana, Helvetica, Arial" fill="#0f5eaa" transform="matrix(1,0,0,1,15,0)"><tspan  dy="0">Plataforma de Mobilidade - Núcleo de Matching e Pricing</tspan></text><text  id="v-3572" font-size="16.799999999999997px" xml:space="preserve" y="2131" font-weight="normal" text-anchor="start" pointer-events="visible" font-family="Tahoma, Verdana, Helvetica, Arial" fill="#0f5eaa" transform="matrix(1,0,0,1,15,0)"><tspan  dy="0">[Software System]</tspan></text><image  id="v-3573" pointer-events="visible"></image></g></g><!--z-index:34--><g   id="j_306"  transform="translate(249,962)" style=""><g  id="v-3562" style="opacity: 1;"><rect  id="v-3563" rx="1" ry="1" stroke-width="2" pointer-events="visiblePainted" fill="#438dd5" stroke="#3c7fc0" stroke-dasharray="" width="450" height="300" style="fill: rgb(67, 141, 213); stroke: rgb(60, 127, 192);"></rect><text  id="v-3564" font-size="33.599999999999994px" xml:space="preserve" y="86.9" font-weight="bold" text-anchor="middle" pointer-events="visible" font-family="Tahoma, Verdana, Helvetica, Arial" fill="#ffffff" dominant-baseline="hanging" transform="matrix(1,0,0,1,225,0)" style="fill: rgb(255, 255, 255);"><tspan  dy="0">API Gateway / BFF</tspan></text><text  id="v-3565" font-size="16.799999999999997px" xml:space="preserve" y="128.5" text-anchor="middle" font-family="Tahoma, Verdana, Helvetica, Arial" fill="#ffffff" dominant-baseline="hanging" transform="matrix(1,0,0,1,225,0)" style="display: block; fill: rgb(255, 255, 255);"><tspan  dy="0">[Container: Edge]</tspan></text><text  id="v-3566" font-size="24px" xml:space="preserve" y="160.3" text-anchor="middle" font-family="Tahoma, Verdana, Helvetica, Arial" fill="#ffffff" dominant-baseline="hanging" transform="matrix(1,0,0,1,225,0)" style="display: block; fill: rgb(255, 255, 255);"><tspan  dy="0">Autenticação, rate limiting e</tspan><tspan dy="1.2em" x="0" >roteamento dos apps</tspan></text><g  id="v-3567" color="#ffffff" transform="matrix(1,0,0,1,222.5,268)" style="fill: rgb(255, 255, 255);" display="none"><g ></g><g ></g><g ></g><g ></g></g><image  id="v-3568"></image></g></g><!--z-index:35--><g   id="j_308"  transform="translate(3459,193)" style=""><g  id="v-3580" style="opacity: 1;"><rect  id="v-3581" rx="1" ry="1" stroke-width="2" pointer-events="visiblePainted" fill="#2e8b57" stroke="#297d4e" stroke-dasharray="" width="450" height="300" style="fill: rgb(46, 139, 87); stroke: rgb(41, 125, 78);"></rect><text  id="v-3582" font-size="33.599999999999994px" xml:space="preserve" y="52.34" font-weight="bold" text-anchor="middle" pointer-events="visible" font-family="Tahoma, Verdana, Helvetica, Arial" fill="#ffffff" dominant-baseline="hanging" transform="matrix(1,0,0,1,225,0)" style="fill: rgb(255, 255, 255);"><tspan  dy="0">Geo/Supply State</tspan><tspan dy="1.2em" x="0" >Service</tspan></text><text  id="v-3583" font-size="16.799999999999997px" xml:space="preserve" y="134.26" text-anchor="middle" font-family="Tahoma, Verdana, Helvetica, Arial" fill="#ffffff" dominant-baseline="hanging" transform="matrix(1,0,0,1,225,0)" style="display: block; fill: rgb(255, 255, 255);"><tspan  dy="0">[Container: Go + Redis]</tspan></text><text  id="v-3584" font-size="24px" xml:space="preserve" y="166.06" text-anchor="middle" font-family="Tahoma, Verdana, Helvetica, Arial" fill="#ffffff" dominant-baseline="hanging" transform="matrix(1,0,0,1,225,0)" style="display: block; fill: rgb(255, 255, 255);"><tspan  dy="0">Estado de oferta por célula</tspan><tspan dy="1.2em" x="0" >H3/S2; busca de candidatos</tspan><tspan dy="1.2em" x="0" >próximos</tspan></text><g  id="v-3585" color="#ffffff" transform="matrix(1,0,0,1,222.5,268)" style="fill: rgb(255, 255, 255);" display="none"><g ></g><g ></g><g ></g><g ></g></g><image  id="v-3586"></image></g></g><!--z-index:36--><g   id="j_309"  transform="translate(2669,367)" style=""><g  id="v-3590" style="opacity: 1;"><rect  id="v-3591" rx="1" ry="1" stroke-width="2" pointer-events="visiblePainted" fill="#2e8b57" stroke="#297d4e" stroke-dasharray="" width="450" height="300" style="fill: rgb(46, 139, 87); stroke: rgb(41, 125, 78);"></rect><text  id="v-3592" font-size="33.599999999999994px" xml:space="preserve" y="86.9" font-weight="bold" text-anchor="middle" pointer-events="visible" font-family="Tahoma, Verdana, Helvetica, Arial" fill="#ffffff" dominant-baseline="hanging" transform="matrix(1,0,0,1,225,0)" style="fill: rgb(255, 255, 255);"><tspan  dy="0">Pricing Service</tspan></text><text  id="v-3593" font-size="16.799999999999997px" xml:space="preserve" y="128.5" text-anchor="middle" font-family="Tahoma, Verdana, Helvetica, Arial" fill="#ffffff" dominant-baseline="hanging" transform="matrix(1,0,0,1,225,0)" style="display: block; fill: rgb(255, 255, 255);"><tspan  dy="0">[Container: Java]</tspan></text><text  id="v-3594" font-size="24px" xml:space="preserve" y="160.3" text-anchor="middle" font-family="Tahoma, Verdana, Helvetica, Arial" fill="#ffffff" dominant-baseline="hanging" transform="matrix(1,0,0,1,225,0)" style="display: block; fill: rgb(255, 255, 255);"><tspan  dy="0">Cotação e surge pricing por</tspan><tspan dy="1.2em" x="0" >zona</tspan></text><g  id="v-3595" color="#ffffff" transform="matrix(1,0,0,1,210,268)" style="fill: rgb(255, 255, 255);" display="none"><g  transform="translate(5 0)"><svg xmlns="http://www.w3.org/2000/svg" width="20" height="20" fill="currentColor" viewBox="0 0 16 16"><path fill-rule="evenodd" d="M6.5 12a5.5 5.5 0 1 0 0-11 5.5 5.5 0 0 0 0 11zM13 6.5a6.5 6.5 0 1 1-13 0 6.5 6.5 0 0 1 13 0z"></path><path d="M10.344 11.742c.03.04.062.078.098.115l3.85 3.85a1 1 0 0 0 1.415-1.414l-3.85-3.85a1.007 1.007 0 0 0-.115-.1 6.538 6.538 0 0 1-1.398 1.4z"></path><path fill-rule="evenodd" d="M6.5 3a.5.5 0 0 1 .5.5V6h2.5a.5.5 0 0 1 0 1H7v2.5a.5.5 0 0 1-1 0V7H3.5a.5.5 0 0 1 0-1H6V3.5a.5.5 0 0 1 .5-.5z"></path></svg></g><g ></g><g ></g><g ></g></g><image  id="v-3596"></image></g></g><!--z-index:37--><g   id="j_311"  transform="translate(1039,893)" style="; opacity: 1;"><g id="v-3610"><rect  id="v-3611" width="2920" height="1267" rx="0" ry="0" stroke-width="2" pointer-events="none" stroke="#297d4e" fill="#ffffff" opacity="1" stroke-dasharray=""></rect><text  id="v-3612" font-size="33.599999999999994px" xml:space="preserve" y="1228" font-weight="bold" text-anchor="start" pointer-events="visible" font-family="Tahoma, Verdana, Helvetica, Arial" fill="#297d4e" transform="matrix(1,0,0,1,15,0)"><tspan  dy="0">Matching/Dispatch Service</tspan></text><text  id="v-3613" font-size="16.799999999999997px" xml:space="preserve" y="1252" font-weight="normal" text-anchor="start" pointer-events="visible" font-family="Tahoma, Verdana, Helvetica, Arial" fill="#297d4e" transform="matrix(1,0,0,1,15,0)"><tspan  dy="0">[Container]</tspan></text><image  id="v-3614" pointer-events="visible"></image></g></g><!--z-index:38--><g   id="j_318"  transform="translate(3459,543)" style=""><g  id="v-3696" style="opacity: 1;"><rect  id="v-3697" rx="1" ry="1" stroke-width="2" pointer-events="visiblePainted" fill="#2e8b57" stroke="#297d4e" stroke-dasharray="" width="450" height="300" style="fill: rgb(46, 139, 87); stroke: rgb(41, 125, 78);"></rect><text  id="v-3698" font-size="33.599999999999994px" xml:space="preserve" y="86.9" font-weight="bold" text-anchor="middle" pointer-events="visible" font-family="Tahoma, Verdana, Helvetica, Arial" fill="#ffffff" dominant-baseline="hanging" transform="matrix(1,0,0,1,225,0)" style="fill: rgb(255, 255, 255);"><tspan  dy="0">ML Inference Service</tspan></text><text  id="v-3699" font-size="16.799999999999997px" xml:space="preserve" y="128.5" text-anchor="middle" font-family="Tahoma, Verdana, Helvetica, Arial" fill="#ffffff" dominant-baseline="hanging" transform="matrix(1,0,0,1,225,0)" style="display: block; fill: rgb(255, 255, 255);"><tspan  dy="0">[Container: Python + ONNX/Triton]</tspan></text><text  id="v-3700" font-size="24px" xml:space="preserve" y="160.3" text-anchor="middle" font-family="Tahoma, Verdana, Helvetica, Arial" fill="#ffffff" dominant-baseline="hanging" transform="matrix(1,0,0,1,225,0)" style="display: block; fill: rgb(255, 255, 255);"><tspan  dy="0">Serve modelos de scoring,</tspan><tspan dy="1.2em" x="0" >cancelamento, ETA e demanda</tspan></text><g  id="v-3701" color="#ffffff" transform="matrix(1,0,0,1,222.5,268)" style="fill: rgb(255, 255, 255);" display="none"><g ></g><g ></g><g ></g><g ></g></g><image  id="v-3702"></image></g></g><!--z-index:39--><g   id="j_319"  transform="translate(4299,1731)" style=""><g  id="v-3706" style="opacity: 1;"><rect  id="v-3707" rx="1" ry="1" stroke-width="2" pointer-events="visiblePainted" fill="#438dd5" stroke="#3c7fc0" stroke-dasharray="" width="450" height="300" style="fill: rgb(67, 141, 213); stroke: rgb(60, 127, 192);"></rect><text  id="v-3708" font-size="33.599999999999994px" xml:space="preserve" y="86.9" font-weight="bold" text-anchor="middle" pointer-events="visible" font-family="Tahoma, Verdana, Helvetica, Arial" fill="#ffffff" dominant-baseline="hanging" transform="matrix(1,0,0,1,225,0)" style="fill: rgb(255, 255, 255);"><tspan  dy="0">Event Backbone</tspan></text><text  id="v-3709" font-size="16.799999999999997px" xml:space="preserve" y="128.5" text-anchor="middle" font-family="Tahoma, Verdana, Helvetica, Arial" fill="#ffffff" dominant-baseline="hanging" transform="matrix(1,0,0,1,225,0)" style="display: block; fill: rgb(255, 255, 255);"><tspan  dy="0">[Container: Apache Kafka]</tspan></text><text  id="v-3710" font-size="24px" xml:space="preserve" y="160.3" text-anchor="middle" font-family="Tahoma, Verdana, Helvetica, Arial" fill="#ffffff" dominant-baseline="hanging" transform="matrix(1,0,0,1,225,0)" style="display: block; fill: rgb(255, 255, 255);"><tspan  dy="0">Log durável de telemetria e</tspan><tspan dy="1.2em" x="0" >eventos de corrida</tspan></text><g  id="v-3711" color="#ffffff" transform="matrix(1,0,0,1,222.5,268)" style="fill: rgb(255, 255, 255);" display="none"><g ></g><g ></g><g ></g><g ></g></g><image  id="v-3712"></image></g></g><!--z-index:40--><g   id="j_310"  transform="translate(1089,1268)" style=""><g  id="v-3603" style="opacity: 1;"><rect  id="v-3604" rx="1" ry="1" stroke-width="2" pointer-events="visiblePainted" fill="#85bbf0" stroke="#78a8d8" stroke-dasharray="" width="450" height="300" style="fill: rgb(133, 187, 240); stroke: rgb(120, 168, 216);"></rect><text  id="v-3605" font-size="33.599999999999994px" xml:space="preserve" y="86.9" font-weight="bold" text-anchor="middle" pointer-events="visible" font-family="Tahoma, Verdana, Helvetica, Arial" fill="#000000" dominant-baseline="hanging" transform="matrix(1,0,0,1,225,0)" style="fill: rgb(0, 0, 0);"><tspan  dy="0">Match Orchestrator</tspan></text><text  id="v-3606" font-size="16.799999999999997px" xml:space="preserve" y="128.5" text-anchor="middle" font-family="Tahoma, Verdana, Helvetica, Arial" fill="#000000" dominant-baseline="hanging" transform="matrix(1,0,0,1,225,0)" style="display: block; fill: rgb(0, 0, 0);"><tspan  dy="0">[Component]</tspan></text><text  id="v-3607" font-size="24px" xml:space="preserve" y="160.3" text-anchor="middle" font-family="Tahoma, Verdana, Helvetica, Arial" fill="#000000" dominant-baseline="hanging" transform="matrix(1,0,0,1,225,0)" style="display: block; fill: rgb(0, 0, 0);"><tspan  dy="0">Coordena o fluxo de despacho</tspan><tspan dy="1.2em" x="0" >de uma solicitação</tspan></text><g  id="v-3608" color="#000000" transform="matrix(1,0,0,1,222.5,268)" style="fill: rgb(0, 0, 0);" display="none"><g ></g><g ></g><g ></g><g ></g></g><image  id="v-3609"></image></g></g><!--z-index:41--><g   id="j_312"  transform="translate(2669,943)" style=""><g  id="v-3621" style="opacity: 1;"><rect  id="v-3622" rx="1" ry="1" stroke-width="2" pointer-events="visiblePainted" fill="#85bbf0" stroke="#78a8d8" stroke-dasharray="" width="450" height="300" style="fill: rgb(133, 187, 240); stroke: rgb(120, 168, 216);"></rect><text  id="v-3623" font-size="33.599999999999994px" xml:space="preserve" y="86.9" font-weight="bold" text-anchor="middle" pointer-events="visible" font-family="Tahoma, Verdana, Helvetica, Arial" fill="#000000" dominant-baseline="hanging" transform="matrix(1,0,0,1,225,0)" style="fill: rgb(0, 0, 0);"><tspan  dy="0">Candidate Generator</tspan></text><text  id="v-3624" font-size="16.799999999999997px" xml:space="preserve" y="128.5" text-anchor="middle" font-family="Tahoma, Verdana, Helvetica, Arial" fill="#000000" dominant-baseline="hanging" transform="matrix(1,0,0,1,225,0)" style="display: block; fill: rgb(0, 0, 0);"><tspan  dy="0">[Component]</tspan></text><text  id="v-3625" font-size="24px" xml:space="preserve" y="160.3" text-anchor="middle" font-family="Tahoma, Verdana, Helvetica, Arial" fill="#000000" dominant-baseline="hanging" transform="matrix(1,0,0,1,225,0)" style="display: block; fill: rgb(0, 0, 0);"><tspan  dy="0">Consulta motoristas elegíveis</tspan><tspan dy="1.2em" x="0" >por célula e filtros básicos</tspan></text><g  id="v-3626" color="#000000" transform="matrix(1,0,0,1,222.5,268)" style="fill: rgb(0, 0, 0);" display="none"><g ></g><g ></g><g ></g><g ></g></g><image  id="v-3627"></image></g></g><!--z-index:42--><g   id="j_313"  transform="translate(1879,1155)" style=""><g  id="v-3634" style="opacity: 1;"><rect  id="v-3635" rx="1" ry="1" stroke-width="2" pointer-events="visiblePainted" fill="#85bbf0" stroke="#78a8d8" stroke-dasharray="" width="450" height="300" style="fill: rgb(133, 187, 240); stroke: rgb(120, 168, 216);"></rect><text  id="v-3636" font-size="33.599999999999994px" xml:space="preserve" y="86.9" font-weight="bold" text-anchor="middle" pointer-events="visible" font-family="Tahoma, Verdana, Helvetica, Arial" fill="#000000" dominant-baseline="hanging" transform="matrix(1,0,0,1,225,0)" style="fill: rgb(0, 0, 0);"><tspan  dy="0">Feature Assembler</tspan></text><text  id="v-3637" font-size="16.799999999999997px" xml:space="preserve" y="128.5" text-anchor="middle" font-family="Tahoma, Verdana, Helvetica, Arial" fill="#000000" dominant-baseline="hanging" transform="matrix(1,0,0,1,225,0)" style="display: block; fill: rgb(0, 0, 0);"><tspan  dy="0">[Component]</tspan></text><text  id="v-3638" font-size="24px" xml:space="preserve" y="160.3" text-anchor="middle" font-family="Tahoma, Verdana, Helvetica, Arial" fill="#000000" dominant-baseline="hanging" transform="matrix(1,0,0,1,225,0)" style="display: block; fill: rgb(0, 0, 0);"><tspan  dy="0">Monta o vetor de features do</tspan><tspan dy="1.2em" x="0" >par passageiro-motorista</tspan></text><g  id="v-3639" color="#000000" transform="matrix(1,0,0,1,222.5,268)" style="fill: rgb(0, 0, 0);" display="none"><g ></g><g ></g><g ></g><g ></g></g><image  id="v-3640"></image></g></g><!--z-index:43--><g   id="j_314"  transform="translate(2669,1381)" style=""><g  id="v-3644" style="opacity: 1;"><rect  id="v-3645" rx="1" ry="1" stroke-width="2" pointer-events="visiblePainted" fill="#85bbf0" stroke="#78a8d8" stroke-dasharray="" width="450" height="300" style="fill: rgb(133, 187, 240); stroke: rgb(120, 168, 216);"></rect><text  id="v-3646" font-size="33.599999999999994px" xml:space="preserve" y="72.5" font-weight="bold" text-anchor="middle" pointer-events="visible" font-family="Tahoma, Verdana, Helvetica, Arial" fill="#000000" dominant-baseline="hanging" transform="matrix(1,0,0,1,225,0)" style="fill: rgb(0, 0, 0);"><tspan  dy="0">Scoring Engine</tspan></text><text  id="v-3647" font-size="16.799999999999997px" xml:space="preserve" y="114.1" text-anchor="middle" font-family="Tahoma, Verdana, Helvetica, Arial" fill="#000000" dominant-baseline="hanging" transform="matrix(1,0,0,1,225,0)" style="display: block; fill: rgb(0, 0, 0);"><tspan  dy="0">[Component]</tspan></text><text  id="v-3648" font-size="24px" xml:space="preserve" y="145.89999999999998" text-anchor="middle" font-family="Tahoma, Verdana, Helvetica, Arial" fill="#000000" dominant-baseline="hanging" transform="matrix(1,0,0,1,225,0)" style="display: block; fill: rgb(0, 0, 0);"><tspan  dy="0">Chama modelos de ETA,</tspan><tspan dy="1.2em" x="0" >cancelamento e compatibilidade</tspan><tspan dy="1.2em" x="0" >e combina em um score</tspan></text><g  id="v-3649" color="#000000" transform="matrix(1,0,0,1,222.5,268)" style="fill: rgb(0, 0, 0);" display="none"><g ></g><g ></g><g ></g><g ></g></g><image  id="v-3650"></image></g></g><!--z-index:44--><g   id="j_315"  transform="translate(1879,1731)" style=""><g  id="v-3657" style="opacity: 1;"><rect  id="v-3658" rx="1" ry="1" stroke-width="2" pointer-events="visiblePainted" fill="#85bbf0" stroke="#78a8d8" stroke-dasharray="" width="450" height="300" style="fill: rgb(133, 187, 240); stroke: rgb(120, 168, 216);"></rect><text  id="v-3659" font-size="33.599999999999994px" xml:space="preserve" y="86.9" font-weight="bold" text-anchor="middle" pointer-events="visible" font-family="Tahoma, Verdana, Helvetica, Arial" fill="#000000" dominant-baseline="hanging" transform="matrix(1,0,0,1,225,0)" style="fill: rgb(0, 0, 0);"><tspan  dy="0">Allocation Optimizer</tspan></text><text  id="v-3660" font-size="16.799999999999997px" xml:space="preserve" y="128.5" text-anchor="middle" font-family="Tahoma, Verdana, Helvetica, Arial" fill="#000000" dominant-baseline="hanging" transform="matrix(1,0,0,1,225,0)" style="display: block; fill: rgb(0, 0, 0);"><tspan  dy="0">[Component]</tspan></text><text  id="v-3661" font-size="24px" xml:space="preserve" y="160.3" text-anchor="middle" font-family="Tahoma, Verdana, Helvetica, Arial" fill="#000000" dominant-baseline="hanging" transform="matrix(1,0,0,1,225,0)" style="display: block; fill: rgb(0, 0, 0);"><tspan  dy="0">Resolve a alocação ótima (lote)</tspan><tspan dy="1.2em" x="0" >evitando conflitos</tspan></text><g  id="v-3662" color="#000000" transform="matrix(1,0,0,1,222.5,268)" style="fill: rgb(0, 0, 0);" display="none"><g ></g><g ></g><g ></g><g ></g></g><image  id="v-3663"></image></g></g><!--z-index:45--><g   id="j_316"  transform="translate(2669,1731)" style=""><g  id="v-3667" style="opacity: 1;"><rect  id="v-3668" rx="1" ry="1" stroke-width="2" pointer-events="visiblePainted" fill="#85bbf0" stroke="#78a8d8" stroke-dasharray="" width="450" height="300" style="fill: rgb(133, 187, 240); stroke: rgb(120, 168, 216);"></rect><text  id="v-3669" font-size="33.599999999999994px" xml:space="preserve" y="86.9" font-weight="bold" text-anchor="middle" pointer-events="visible" font-family="Tahoma, Verdana, Helvetica, Arial" fill="#000000" dominant-baseline="hanging" transform="matrix(1,0,0,1,225,0)" style="fill: rgb(0, 0, 0);"><tspan  dy="0">Offer Manager</tspan></text><text  id="v-3670" font-size="16.799999999999997px" xml:space="preserve" y="128.5" text-anchor="middle" font-family="Tahoma, Verdana, Helvetica, Arial" fill="#000000" dominant-baseline="hanging" transform="matrix(1,0,0,1,225,0)" style="display: block; fill: rgb(0, 0, 0);"><tspan  dy="0">[Component]</tspan></text><text  id="v-3671" font-size="24px" xml:space="preserve" y="160.3" text-anchor="middle" font-family="Tahoma, Verdana, Helvetica, Arial" fill="#000000" dominant-baseline="hanging" transform="matrix(1,0,0,1,225,0)" style="display: block; fill: rgb(0, 0, 0);"><tspan  dy="0">Oferta ao motorista, trata</tspan><tspan dy="1.2em" x="0" >timeout, recusa e re-despacho</tspan></text><g  id="v-3672" color="#000000" transform="matrix(1,0,0,1,222.5,268)" style="fill: rgb(0, 0, 0);" display="none"><g ></g><g ></g><g ></g><g ></g></g><image  id="v-3673"></image></g></g><!--z-index:46--><g   id="j_317"  transform="translate(3459,1731)" style=""><g  id="v-3680" style="opacity: 1;"><rect  id="v-3681" rx="1" ry="1" stroke-width="2" pointer-events="visiblePainted" fill="#85bbf0" stroke="#78a8d8" stroke-dasharray="" width="450" height="300" style="fill: rgb(133, 187, 240); stroke: rgb(120, 168, 216);"></rect><text  id="v-3682" font-size="33.599999999999994px" xml:space="preserve" y="86.9" font-weight="bold" text-anchor="middle" pointer-events="visible" font-family="Tahoma, Verdana, Helvetica, Arial" fill="#000000" dominant-baseline="hanging" transform="matrix(1,0,0,1,225,0)" style="fill: rgb(0, 0, 0);"><tspan  dy="0">Feedback Publisher</tspan></text><text  id="v-3683" font-size="16.799999999999997px" xml:space="preserve" y="128.5" text-anchor="middle" font-family="Tahoma, Verdana, Helvetica, Arial" fill="#000000" dominant-baseline="hanging" transform="matrix(1,0,0,1,225,0)" style="display: block; fill: rgb(0, 0, 0);"><tspan  dy="0">[Component]</tspan></text><text  id="v-3684" font-size="24px" xml:space="preserve" y="160.3" text-anchor="middle" font-family="Tahoma, Verdana, Helvetica, Arial" fill="#000000" dominant-baseline="hanging" transform="matrix(1,0,0,1,225,0)" style="display: block; fill: rgb(0, 0, 0);"><tspan  dy="0">Publica o resultado da oferta</tspan><tspan dy="1.2em" x="0" >para retreino</tspan></text><g  id="v-3685" color="#000000" transform="matrix(1,0,0,1,222.5,268)" style="fill: rgb(0, 0, 0);" display="none"><g ></g><g ></g><g ></g><g ></g></g><image  id="v-3686"></image></g></g><!--z-index:47--><g   id="j_320"  style="opacity: 1;"><path fill="none" cursor="pointer" stroke="transparent" stroke-linecap="round" joint-selector="wrapper" id="v-3727" stroke-width="10" stroke-linejoin="round" d="M 573.75 962 L 863 526 C 866.9999999999999 520.6666666666665 872.3333333333333 517.9999999999999 879 518 L 2669 517.11"></path><path fill="none" pointer-events="none" joint-selector="line" id="v-3726" stroke="#444444" stroke-width="2" stroke-linejoin="round" stroke-dasharray="8 8" d="M 573.75 962 L 863 526 C 866.9999999999999 520.6666666666665 872.3333333333333 517.9999999999999 879 518 L 2669 517.11" marker-end="url(#v-21252848929)"></path><g id="v-3716" ><g id="v-3717"  label-idx="0" cursor="move" transform="matrix(1,0,0,1,1709.6436767578125,504.18701171875)" style="cursor: default;"><rect joint-selector="rect" id="v-3721" fill="#ffffff" rx="3" ry="3" x="-79.125" y="-19.799999237060547" width="159.14999389648438" height="33" pointer-events="none"  style="display: block;"></rect><text joint-selector="text" id="v-3720" font-size="24px" xml:space="preserve" fill="#444444" text-anchor="middle" pointer-events="none" font-family="Tahoma, Verdana, Helvetica, Arial" font-weight="normal"  style="display: block;"><tspan  dy="0.3em">Pede cotação</tspan></text></g><g id="v-3718"  label-idx="1" cursor="move" transform="matrix(1,0,0,1,1709.6436767578125,534.5869750976562)" style="cursor: default;"><rect joint-selector="rect" id="v-3723" fill="#ffffff" rx="3" ry="3" x="-29.627498626708984" y="-13.85999870300293" width="59.25499725341797" height="23.099998474121094"  pointer-events="none" style="display: block;"></rect><text joint-selector="text" id="v-3722" font-size="16.799999999999997px" xml:space="preserve" fill="#444444" text-anchor="middle" pointer-events="none" font-family="Tahoma, Verdana, Helvetica, Arial" font-weight="normal"  style="display: block;"><tspan  dy="0.3em">[gRPC]</tspan></text></g><g id="v-3719"  label-idx="2" cursor="move" transform="matrix(1,0,0,1,1493.0860595703125,543.0897216796875)" style="cursor: default;"><rect joint-selector="rect" id="v-3725" fill="#ffffff" rx="3" ry="3" x="0" y="0" width="0" height="0"  display="none"></rect><text joint-selector="text" id="v-3724" fill="#000000" font-size="14" text-anchor="middle" text-vertical-anchor="middle" pointer-events="none"></text></g></g></g><!--z-index:48--><g   id="j_321"  style="opacity: 1;"><path fill="none" cursor="pointer" stroke="transparent" stroke-linecap="round" joint-selector="wrapper" id="v-3739" stroke-width="10" stroke-linejoin="round" d="M 3119 484.19 L 3279 461 C 3285.6666666666665 459.93333333333317 3292 460.93333333333317 3298 464 L 3459 559.94"></path><path fill="none" pointer-events="none" joint-selector="line" id="v-3738" stroke="#444444" stroke-width="2" stroke-linejoin="round" stroke-dasharray="8 8" d="M 3119 484.19 L 3279 461 C 3285.6666666666665 459.93333333333317 3292 460.93333333333317 3298 464 L 3459 559.94" marker-end="url(#v-21252848929)"></path><g id="v-3731" ><g id="v-3732"  label-idx="0" cursor="move" transform="matrix(1,0,0,1,3288.82421875,460.9618225097656)" style="cursor: default;"><rect joint-selector="rect" id="v-3735" fill="#ffffff" rx="3" ry="3" x="-83.82499694824219" y="-48.599998474121094" width="168.5500030517578" height="90.60000610351562" pointer-events="none"  style="display: block;"></rect><text joint-selector="text" id="v-3734" font-size="24px" xml:space="preserve" fill="#444444" text-anchor="middle" pointer-events="none" font-family="Tahoma, Verdana, Helvetica, Arial" font-weight="normal"  style="display: block;"><tspan  dy="-0.8999999999999999em">Pede previsão</tspan><tspan dy="1.2em" x="0" >de demanda/</tspan><tspan dy="1.2em" x="0" >elasticidade</tspan></text></g><g id="v-3733"  label-idx="1" cursor="move" transform="matrix(1,0,0,1,3278.82421875,501.7618103027344)" style="cursor: default;"><rect joint-selector="rect" id="v-3737" fill="#ffffff" rx="3" ry="3" x="0" y="0" width="0" height="0"  display="none"></rect><text joint-selector="text" id="v-3736" fill="#000000" font-size="14" text-anchor="middle" text-vertical-anchor="middle" pointer-events="none"></text></g></g></g><!--z-index:49--><g   id="j_322"  style="opacity: 1;"><path fill="none" cursor="pointer" stroke="transparent" stroke-linecap="round" joint-selector="wrapper" id="v-3751" stroke-width="10" stroke-linejoin="round" d="M 667.5 1262 L 861 1412 C 866.3333333333333 1416.1333333333332 872.3333333333333 1418.1333333333332 879 1418 L 1089 1418.1"></path><path fill="none" pointer-events="none" joint-selector="line" id="v-3750" stroke="#444444" stroke-width="2" stroke-linejoin="round" stroke-dasharray="8 8" d="M 667.5 1262 L 861 1412 C 866.3333333333333 1416.1333333333332 872.3333333333333 1418.1333333333332 879 1418 L 1089 1418.1" marker-end="url(#v-21252848929)"></path><g id="v-3743" ><g id="v-3744"  label-idx="0" cursor="move" transform="matrix(1,0,0,1,869.3945922851562,1416.5645751953125)" style="cursor: default;"><rect joint-selector="rect" id="v-3747" fill="#ffffff" rx="3" ry="3" x="-89.5250015258789" y="-19.799999237060547" width="180.24998474121094" height="33" pointer-events="none"  style="display: block;"></rect><text joint-selector="text" id="v-3746" font-size="24px" xml:space="preserve" fill="#444444" text-anchor="middle" pointer-events="none" font-family="Tahoma, Verdana, Helvetica, Arial" font-weight="normal"  style="display: block;"><tspan  dy="0.3em">Solicita corrida</tspan></text></g><g id="v-3745"  label-idx="1" cursor="move" transform="matrix(1,0,0,1,859.3945922851562,1428.5645751953125)" style="cursor: default;"><rect joint-selector="rect" id="v-3749" fill="#ffffff" rx="3" ry="3" x="0" y="2.2737367544323206e-13" width="0" height="0"  display="none"></rect><text joint-selector="text" id="v-3748" fill="#000000" font-size="14" text-anchor="middle" text-vertical-anchor="middle" pointer-events="none"></text></g></g></g><!--z-index:50--><g   id="j_323"  style="opacity: 1;"><path fill="none" cursor="pointer" stroke="transparent" stroke-linecap="round" joint-selector="wrapper" id="v-3763" stroke-width="10" stroke-linejoin="round" d="M 1496.31 1268 L 1701 1099 C 1706.3333333333333 1095 1712.3333333333333 1093 1719 1093 L 2669 1093"></path><path fill="none" pointer-events="none" joint-selector="line" id="v-3762" stroke="#444444" stroke-width="2" stroke-linejoin="round" stroke-dasharray="8 8" d="M 1496.31 1268 L 1701 1099 C 1706.3333333333333 1095 1712.3333333333333 1093 1719 1093 L 2669 1093" marker-end="url(#v-21252848929)"></path><g id="v-3755" ><g id="v-3756"  label-idx="0" cursor="move" transform="matrix(1,0,0,1,2104.4072265625,1093)" style="cursor: default;"><rect joint-selector="rect" id="v-3759" fill="#ffffff" rx="3" ry="3" x="-97.69999694824219" y="-19.799999237060547" width="195.39999389648438" height="33" pointer-events="none"  style="display: block;"></rect><text joint-selector="text" id="v-3758" font-size="24px" xml:space="preserve" fill="#444444" text-anchor="middle" pointer-events="none" font-family="Tahoma, Verdana, Helvetica, Arial" font-weight="normal"  style="display: block;"><tspan  dy="0.3em">Pede candidatos</tspan></text></g><g id="v-3757"  label-idx="1" cursor="move" transform="matrix(1,0,0,1,2094.4072265625,1105)" style="cursor: default;"><rect joint-selector="rect" id="v-3761" fill="#ffffff" rx="3" ry="3" x="0" y="0" width="0" height="0"  display="none"></rect><text joint-selector="text" id="v-3760" fill="#000000" font-size="14" text-anchor="middle" text-vertical-anchor="middle" pointer-events="none"></text></g></g></g><!--z-index:51--><g   id="j_324"  style="opacity: 1;"><path fill="none" cursor="pointer" stroke="transparent" stroke-linecap="round" joint-selector="wrapper" id="v-3775" stroke-width="10" stroke-linejoin="round" d="M 3119 1093 L 3279 1093 C 3285.6666666666665 1093 3290.6666666666665 1090 3294 1084 L 3605 493"></path><path fill="none" pointer-events="none" joint-selector="line" id="v-3774" stroke="#444444" stroke-width="2" stroke-linejoin="round" stroke-dasharray="8 8" d="M 3119 1093 L 3279 1093 C 3285.6666666666665 1093 3290.6666666666665 1090 3294 1084 L 3605 493" marker-end="url(#v-21252848929)"></path><g id="v-3767" ><g id="v-3768"  label-idx="0" cursor="move" transform="matrix(1,0,0,1,3288.156494140625,1090.4971923828125)" style="cursor: default;"><rect joint-selector="rect" id="v-3771" fill="#ffffff" rx="3" ry="3" x="-63.79999923706055" y="-48.599998474121094" width="127.5999984741211" height="90.60000610351562" pointer-events="none"  style="display: block;"></rect><text joint-selector="text" id="v-3770" font-size="24px" xml:space="preserve" fill="#444444" text-anchor="middle" pointer-events="none" font-family="Tahoma, Verdana, Helvetica, Arial" font-weight="normal"  style="display: block;"><tspan  dy="-0.8999999999999999em">Busca</tspan><tspan dy="1.2em" x="0" >motoristas</tspan><tspan dy="1.2em" x="0" >próximos</tspan></text></g><g id="v-3769"  label-idx="1" cursor="move" transform="matrix(1,0,0,1,3278.156494140625,1131.297119140625)" style="cursor: default;"><rect joint-selector="rect" id="v-3773" fill="#ffffff" rx="3" ry="3" x="0" y="0" width="0" height="0"  display="none"></rect><text joint-selector="text" id="v-3772" fill="#000000" font-size="14" text-anchor="middle" text-vertical-anchor="middle" pointer-events="none"></text></g></g></g><!--z-index:52--><g   id="j_325"  style="opacity: 1;"><path fill="none" cursor="pointer" stroke="transparent" stroke-linecap="round" joint-selector="wrapper" id="v-3787" stroke-width="10" stroke-linejoin="round" d="M 1539 1353.63 L 1699 1308 C 1705.6666666666665 1306 1712.3333333333333 1305 1719 1305 L 1879 1305"></path><path fill="none" pointer-events="none" joint-selector="line" id="v-3786" stroke="#444444" stroke-width="2" stroke-linejoin="round" stroke-dasharray="8 8" d="M 1539 1353.63 L 1699 1308 C 1705.6666666666665 1306 1712.3333333333333 1305 1719 1305 L 1879 1305" marker-end="url(#v-21252848929)"></path><g id="v-3779" ><g id="v-3780"  label-idx="0" cursor="move" transform="matrix(1,0,0,1,1709.1171875,1305.7325439453125)" style="cursor: default;"><rect joint-selector="rect" id="v-3783" fill="#ffffff" rx="3" ry="3" x="-83.625" y="-48.599998474121094" width="168.64999389648438" height="90.60000610351562" pointer-events="none"  style="display: block;"></rect><text joint-selector="text" id="v-3782" font-size="24px" xml:space="preserve" fill="#444444" text-anchor="middle" pointer-events="none" font-family="Tahoma, Verdana, Helvetica, Arial" font-weight="normal"  style="display: block;"><tspan  dy="-0.8999999999999999em">Solicita</tspan><tspan dy="1.2em" x="0" >montagem de</tspan><tspan dy="1.2em" x="0" >features</tspan></text></g><g id="v-3781"  label-idx="1" cursor="move" transform="matrix(1,0,0,1,1699.1171875,1346.532470703125)" style="cursor: default;"><rect joint-selector="rect" id="v-3785" fill="#ffffff" rx="3" ry="3" x="0" y="0" width="0" height="0"  display="none"></rect><text joint-selector="text" id="v-3784" fill="#000000" font-size="14" text-anchor="middle" text-vertical-anchor="middle" pointer-events="none"></text></g></g></g><!--z-index:53--><g   id="j_326"  style="opacity: 1;"><path fill="none" cursor="pointer" stroke="transparent" stroke-linecap="round" joint-selector="wrapper" id="v-3799" stroke-width="10" stroke-linejoin="round" d="M 2329 1305 L 2489 1305 C 2495.6666666666665 1305 2500.333333333333 1302 2503 1296 L 2818.81 667"></path><path fill="none" pointer-events="none" joint-selector="line" id="v-3798" stroke="#444444" stroke-width="2" stroke-linejoin="round" stroke-dasharray="8 8" d="M 2329 1305 L 2489 1305 C 2495.6666666666665 1305 2500.333333333333 1302 2503 1296 L 2818.81 667" marker-end="url(#v-21252848929)"></path><g id="v-3791" ><g id="v-3792"  label-idx="0" cursor="move" transform="matrix(1,0,0,1,2498.2216796875,1302.2503662109375)" style="cursor: default;"><rect joint-selector="rect" id="v-3795" fill="#ffffff" rx="3" ry="3" x="-96.80000305175781" y="-34.20000076293945" width="194.5" height="61.80000305175781" pointer-events="none"  style="display: block;"></rect><text joint-selector="text" id="v-3794" font-size="24px" xml:space="preserve" fill="#444444" text-anchor="middle" pointer-events="none" font-family="Tahoma, Verdana, Helvetica, Arial" font-weight="normal"  style="display: block;"><tspan  dy="-0.3em">Obtém contexto</tspan><tspan dy="1.2em" x="0" >de preço/surge</tspan></text></g><g id="v-3793"  label-idx="1" cursor="move" transform="matrix(1,0,0,1,2488.2216796875,1328.650390625)" style="cursor: default;"><rect joint-selector="rect" id="v-3797" fill="#ffffff" rx="3" ry="3" x="0" y="0" width="0" height="0"  display="none"></rect><text joint-selector="text" id="v-3796" fill="#000000" font-size="14" text-anchor="middle" text-vertical-anchor="middle" pointer-events="none"></text></g></g></g><!--z-index:54--><g   id="j_327"  style="opacity: 1;"><path fill="none" cursor="pointer" stroke="transparent" stroke-linecap="round" joint-selector="wrapper" id="v-3811" stroke-width="10" stroke-linejoin="round" d="M 1539 1482.59 L 1699 1529 C 1705.6666666666665 1530.6 1712.3333333333333 1531.2666666666667 1719 1531 L 2669 1531.08"></path><path fill="none" pointer-events="none" joint-selector="line" id="v-3810" stroke="#444444" stroke-width="2" stroke-linejoin="round" stroke-dasharray="8 8" d="M 1539 1482.59 L 1699 1529 C 1705.6666666666665 1530.6 1712.3333333333333 1531.2666666666667 1719 1531 L 2669 1531.08" marker-end="url(#v-21252848929)"></path><g id="v-3803" ><g id="v-3804"  label-idx="0" cursor="move" transform="matrix(1,0,0,1,2104.0439453125,1531.032470703125)" style="cursor: default;"><rect joint-selector="rect" id="v-3807" fill="#ffffff" rx="3" ry="3" x="-76.2249984741211" y="-34.20000076293945" width="152.54998779296875" height="61.80000305175781" pointer-events="none"  style="display: block;"></rect><text joint-selector="text" id="v-3806" font-size="24px" xml:space="preserve" fill="#444444" text-anchor="middle" pointer-events="none" font-family="Tahoma, Verdana, Helvetica, Arial" font-weight="normal"  style="display: block;"><tspan  dy="-0.3em">Pede scoring</tspan><tspan dy="1.2em" x="0" >dos pares</tspan></text></g><g id="v-3805"  label-idx="1" cursor="move" transform="matrix(1,0,0,1,2094.0439453125,1557.432373046875)" style="cursor: default;"><rect joint-selector="rect" id="v-3809" fill="#ffffff" rx="3" ry="3" x="2.2737367544323206e-13" y="0" width="0" height="0"  display="none"></rect><text joint-selector="text" id="v-3808" fill="#000000" font-size="14" text-anchor="middle" text-vertical-anchor="middle" pointer-events="none"></text></g></g></g><!--z-index:55--><g   id="j_328"  style="opacity: 1;"><path fill="none" cursor="pointer" stroke="transparent" stroke-linecap="round" joint-selector="wrapper" id="v-3823" stroke-width="10" stroke-linejoin="round" d="M 3119 1531.23 L 3279 1531 C 3285.6666666666665 1531.2666666666667 3290.333333333333 1528.2666666666667 3293 1522 L 3613.33 843"></path><path fill="none" pointer-events="none" joint-selector="line" id="v-3822" stroke="#444444" stroke-width="2" stroke-linejoin="round" stroke-dasharray="8 8" d="M 3119 1531.23 L 3279 1531 C 3285.6666666666665 1531.2666666666667 3290.333333333333 1528.2666666666667 3293 1522 L 3613.33 843" marker-end="url(#v-21252848929)"></path><g id="v-3815" ><g id="v-3816"  label-idx="0" cursor="move" transform="matrix(1,0,0,1,3288.064208984375,1528.5643310546875)" style="cursor: default;"><rect joint-selector="rect" id="v-3819" fill="#ffffff" rx="3" ry="3" x="-85.875" y="-34.20000076293945" width="171.75" height="61.80000305175781" pointer-events="none"  style="display: block;"></rect><text joint-selector="text" id="v-3818" font-size="24px" xml:space="preserve" fill="#444444" text-anchor="middle" pointer-events="none" font-family="Tahoma, Verdana, Helvetica, Arial" font-weight="normal"  style="display: block;"><tspan  dy="-0.3em">Inferência dos</tspan><tspan dy="1.2em" x="0" >modelos</tspan></text></g><g id="v-3817"  label-idx="1" cursor="move" transform="matrix(1,0,0,1,3278.064208984375,1554.96435546875)" style="cursor: default;"><rect joint-selector="rect" id="v-3821" fill="#ffffff" rx="3" ry="3" x="0" y="0" width="0" height="0"  display="none"></rect><text joint-selector="text" id="v-3820" fill="#000000" font-size="14" text-anchor="middle" text-vertical-anchor="middle" pointer-events="none"></text></g></g></g><!--z-index:56--><g   id="j_329"  style="opacity: 1;"><path fill="none" cursor="pointer" stroke="transparent" stroke-linecap="round" joint-selector="wrapper" id="v-3835" stroke-width="10" stroke-linejoin="round" d="M 1441.86 1568 L 1703 1874 C 1707 1878.9333333333334 1712.3333333333333 1881.2666666666667 1719 1881 L 1879 1881.23"></path><path fill="none" pointer-events="none" joint-selector="line" id="v-3834" stroke="#444444" stroke-width="2" stroke-linejoin="round" stroke-dasharray="8 8" d="M 1441.86 1568 L 1703 1874 C 1707 1878.9333333333334 1712.3333333333333 1881.2666666666667 1719 1881 L 1879 1881.23" marker-end="url(#v-21252848929)"></path><g id="v-3827" ><g id="v-3828"  label-idx="0" cursor="move" transform="matrix(1,0,0,1,1709.5963134765625,1879.2672119140625)" style="cursor: default;"><rect joint-selector="rect" id="v-3831" fill="#ffffff" rx="3" ry="3" x="-84.9000015258789" y="-34.20000076293945" width="170.6999969482422" height="61.80000305175781" pointer-events="none"  style="display: block;"></rect><text joint-selector="text" id="v-3830" font-size="24px" xml:space="preserve" fill="#444444" text-anchor="middle" pointer-events="none" font-family="Tahoma, Verdana, Helvetica, Arial" font-weight="normal"  style="display: block;"><tspan  dy="-0.3em">Pede alocação</tspan><tspan dy="1.2em" x="0" >ótima</tspan></text></g><g id="v-3829"  label-idx="1" cursor="move" transform="matrix(1,0,0,1,1699.5963134765625,1905.667236328125)" style="cursor: default;"><rect joint-selector="rect" id="v-3833" fill="#ffffff" rx="3" ry="3" x="0" y="0" width="0" height="0"  display="none"></rect><text joint-selector="text" id="v-3832" fill="#000000" font-size="14" text-anchor="middle" text-vertical-anchor="middle" pointer-events="none"></text></g></g></g><!--z-index:57--><g   id="j_330"  style="opacity: 1;"><path fill="none" cursor="pointer" stroke="transparent" stroke-linecap="round" joint-selector="wrapper" id="v-3847" stroke-width="10" stroke-linejoin="round" d="M 2329 1881 L 2669 1881"></path><path fill="none" pointer-events="none" joint-selector="line" id="v-3846" stroke="#444444" stroke-width="2" stroke-linejoin="round" stroke-dasharray="8 8" d="M 2329 1881 L 2669 1881" marker-end="url(#v-21252848929)"></path><g id="v-3839" ><g id="v-3840"  label-idx="0" cursor="move" transform="matrix(1,0,0,1,2499,1881)" style="cursor: default;"><rect joint-selector="rect" id="v-3843" fill="#ffffff" rx="3" ry="3" x="-98.44999694824219" y="-34.20000076293945" width="197.8000030517578" height="61.80000305175781" pointer-events="none"  style="display: block;"></rect><text joint-selector="text" id="v-3842" font-size="24px" xml:space="preserve" fill="#444444" text-anchor="middle" pointer-events="none" font-family="Tahoma, Verdana, Helvetica, Arial" font-weight="normal"  style="display: block;"><tspan  dy="-0.3em">Aciona oferta ao</tspan><tspan dy="1.2em" x="0" >escolhido</tspan></text></g><g id="v-3841"  label-idx="1" cursor="move" transform="matrix(1,0,0,1,2489,1907.4000244140625)" style="cursor: default;"><rect joint-selector="rect" id="v-3845" fill="#ffffff" rx="3" ry="3" x="0" y="0" width="0" height="0"  display="none"></rect><text joint-selector="text" id="v-3844" fill="#000000" font-size="14" text-anchor="middle" text-vertical-anchor="middle" pointer-events="none"></text></g></g></g><!--z-index:58--><g   id="j_331"  style="opacity: 1;"><path fill="none" cursor="pointer" stroke="transparent" stroke-linecap="round" joint-selector="wrapper" id="v-3859" stroke-width="10" stroke-linejoin="round" d="M 3119 1881 L 3459 1881"></path><path fill="none" pointer-events="none" joint-selector="line" id="v-3858" stroke="#444444" stroke-width="2" stroke-linejoin="round" stroke-dasharray="8 8" d="M 3119 1881 L 3459 1881" marker-end="url(#v-21252848929)"></path><g id="v-3851" ><g id="v-3852"  label-idx="0" cursor="move" transform="matrix(1,0,0,1,3289,1881)" style="cursor: default;"><rect joint-selector="rect" id="v-3855" fill="#ffffff" rx="3" ry="3" x="-97.32499694824219" y="-48.599998474121094" width="194.64999389648438" height="90.60000610351562" pointer-events="none"  style="display: block;"></rect><text joint-selector="text" id="v-3854" font-size="24px" xml:space="preserve" fill="#444444" text-anchor="middle" pointer-events="none" font-family="Tahoma, Verdana, Helvetica, Arial" font-weight="normal"  style="display: block;"><tspan  dy="-0.8999999999999999em">Resultado (aceit</tspan><tspan dy="1.2em" x="0" >e/</tspan><tspan dy="1.2em" x="0" >recusa/timeout)</tspan></text></g><g id="v-3853"  label-idx="1" cursor="move" transform="matrix(1,0,0,1,3279,1921.800048828125)" style="cursor: default;"><rect joint-selector="rect" id="v-3857" fill="#ffffff" rx="3" ry="3" x="0" y="0" width="0" height="0"  display="none"></rect><text joint-selector="text" id="v-3856" fill="#000000" font-size="14" text-anchor="middle" text-vertical-anchor="middle" pointer-events="none"></text></g></g></g><!--z-index:59--><g   id="j_332"  style="opacity: 1;"><path fill="none" cursor="pointer" stroke="transparent" stroke-linecap="round" joint-selector="wrapper" id="v-3871" stroke-width="10" stroke-linejoin="round" d="M 3909 1881 L 4299 1881"></path><path fill="none" pointer-events="none" joint-selector="line" id="v-3870" stroke="#444444" stroke-width="2" stroke-linejoin="round" stroke-dasharray="8 8" d="M 3909 1881 L 4299 1881" marker-end="url(#v-21252848929)"></path><g id="v-3863" ><g id="v-3864"  label-idx="0" cursor="move" transform="matrix(1,0,0,1,4129,1881)" style="cursor: default;"><rect joint-selector="rect" id="v-3867" fill="#ffffff" rx="3" ry="3" x="-87.4749984741211" y="-34.20000076293945" width="175.84999084472656" height="61.80000305175781" pointer-events="none"  style="display: block;"></rect><text joint-selector="text" id="v-3866" font-size="24px" xml:space="preserve" fill="#444444" text-anchor="middle" pointer-events="none" font-family="Tahoma, Verdana, Helvetica, Arial" font-weight="normal"  style="display: block;"><tspan  dy="-0.3em">Publica evento</tspan><tspan dy="1.2em" x="0" >de feedback</tspan></text></g><g id="v-3865"  label-idx="1" cursor="move" transform="matrix(1,0,0,1,4119,1907.4000244140625)" style="cursor: default;"><rect joint-selector="rect" id="v-3869" fill="#ffffff" rx="3" ry="3" x="0" y="0" width="0" height="0"  display="none"></rect><text joint-selector="text" id="v-3868" fill="#000000" font-size="14" text-anchor="middle" text-vertical-anchor="middle" pointer-events="none"></text></g></g></g><!--z-index:60--><g   id="j_333"  style="opacity: 1;"><path fill="none" cursor="pointer" stroke="transparent" stroke-linecap="round" joint-selector="wrapper" id="v-3883" stroke-width="10" stroke-linejoin="round" d="M 3119 550.95 L 3279 575 C 3285.6666666666665 576.0666666666666 3292 575.0666666666666 3298 572 L 3459 476.06"></path><path fill="none" pointer-events="none" joint-selector="line" id="v-3882" stroke="#444444" stroke-width="2" stroke-linejoin="round" stroke-dasharray="8 8" d="M 3119 550.95 L 3279 575 C 3285.6666666666665 576.0666666666666 3292 575.0666666666666 3298 572 L 3459 476.06" marker-end="url(#v-21252848929)"></path><g id="v-3875" ><g id="v-3876"  label-idx="0" cursor="move" transform="matrix(1,0,0,1,3288.75,575.0499877929688)" style="cursor: default;"><rect joint-selector="rect" id="v-3879" fill="#ffffff" rx="3" ry="3" x="-88" y="-34.20000076293945" width="176" height="61.80000305175781" pointer-events="none"  style="display: block;"></rect><text joint-selector="text" id="v-3878" font-size="24px" xml:space="preserve" fill="#444444" text-anchor="middle" pointer-events="none" font-family="Tahoma, Verdana, Helvetica, Arial" font-weight="normal"  style="display: block;"><tspan  dy="-0.3em">Lê oferta atual</tspan><tspan dy="1.2em" x="0" >por célula</tspan></text></g><g id="v-3877"  label-idx="1" cursor="move" transform="matrix(1,0,0,1,3278.75,601.4500122070312)" style="cursor: default;"><rect joint-selector="rect" id="v-3881" fill="#ffffff" rx="3" ry="3" x="0" y="0" width="0" height="0"  display="none"></rect><text joint-selector="text" id="v-3880" fill="#000000" font-size="14" text-anchor="middle" text-vertical-anchor="middle" pointer-events="none"></text></g></g></g><!--z-index:61--><!--z-index:62--><!--z-index:63--><!--z-index:64--><!--z-index:65--><!--z-index:66--><!--z-index:67--><!--z-index:68--><!--z-index:69--><!--z-index:70--><!--z-index:71--><!--z-index:72--><!--z-index:73--><!--z-index:74--><!--z-index:75--><!--z-index:76--><!--z-index:77--><!--z-index:78--><!--z-index:79--><!--z-index:80--><!--z-index:81--><!--z-index:82--><!--z-index:83--><!--z-index:84--><!--z-index:85--><!--z-index:86--><!--z-index:87--><!--z-index:88--><!--z-index:89--></g><g  style="user-select: none;"></g><g ></g><g  display="none"></g></g></svg>