<svg xmlns="http://www.w3.org/2000/svg" xmlns:xlink="http://www.w3.org/1999/xlink" version="1.1" style="background: #ffffff" viewBox="0 0 2380 1750"><style id="v-3" type="text/css">        .joint-element .scalable * {            vector-effect: non-scaling-stroke;        }    </style><defs joint-selector="defs"><marker id="v-2-527367903" orient="auto" overflow="visible" markerUnits="userSpaceOnUse"><path id="v-111" stroke="#cccccc" fill="#cccccc" transform="rotate(180)" d="M 20 -10 0 0 20 10 Z"></path></marker><marker id="v-21252848929" orient="auto" overflow="visible" markerUnits="userSpaceOnUse"><path id="v-2739" stroke="#444444" fill="#444444" transform="rotate(180)" d="M 20 -10 0 0 20 10 Z"></path></marker></defs><g  joint-selector="layers" transform="matrix(1,0,0,1,0,0)"><g style="pointer-events: none;" ></g><g ></g><g  style="user-select: none;"><!--z-index:0--><!--z-index:1--><!--z-index:2--><!--z-index:3--><!--z-index:4--><!--z-index:5--><!--z-index:6--><!--z-index:7--><!--z-index:8--><!--z-index:9--><!--z-index:10--><!--z-index:11--><!--z-index:12--><!--z-index:13--><!--z-index:14--><!--z-index:15--><g   id="j_228"  transform="translate(20,1706)"><g id="v-2636"><text  id="v-2637" font-size="24px" xml:space="preserve" y="0.8em" font-weight="normal" text-anchor="start" fill="#444444" pointer-events="none" display="block" font-family="Tahoma, Verdana, Helvetica, Arial"><tspan  dy="0">Wednesday, June 17, 2026 at 6:07 PM Brasilia Standard Time</tspan></text></g></g><!--z-index:16--><g   id="j_227"  transform="translate(20,1672)"><g id="v-2634"><text  id="v-2635" font-size="24px" xml:space="preserve" y="0.8em" font-weight="normal" text-anchor="start" fill="#444444" pointer-events="none" display="block" font-family="Tahoma, Verdana, Helvetica, Arial"><tspan  dy="0">Diagrama de Contexto - Núcleo de Matching e Precificação</tspan></text></g></g><!--z-index:17--><g   id="j_226"  transform="translate(20,1626)"><g id="v-2632"><text  id="v-2633" font-size="36px" xml:space="preserve" y="0.8em" font-weight="normal" text-anchor="start" fill="#444444" pointer-events="none" display="block" font-family="Tahoma, Verdana, Helvetica, Arial"><tspan  dy="0">System Context View: Plataforma de Mobilidade - Núcleo de Matching e Pricing</tspan></text></g></g><!--z-index:18--><g   id="j_229"  transform="translate(200,442)" style=""><g  id="v-2641" style="opacity: 1;"><rect  x="0" y="160" width="400" height="240" rx="70" id="v-2643" stroke-width="2" pointer-events="visiblePainted" fill="#08427b" stroke="#073b6f" stroke-dasharray="" style="fill: rgb(8, 66, 123); stroke: rgb(7, 59, 111);"></rect><circle  cx="200" cy="88.88888888888889" r="88.88888888888889" id="v-2642" stroke-width="2" pointer-events="visiblePainted" fill="#08427b" stroke="#073b6f" stroke-dasharray="" style="fill: rgb(8, 66, 123); stroke: rgb(7, 59, 111);"></circle><line  x1="80" y1="266.6666666666667" x2="80" y2="400" id="v-2649" stroke="#073b6f" stroke-width="1" stroke-dasharray="" style="stroke: rgb(7, 59, 111);"></line><line  x1="320" y1="266.6666666666667" x2="320" y2="400" id="v-2650" stroke="#073b6f" stroke-width="1" stroke-dasharray="" style="stroke: rgb(7, 59, 111);"></line><text  id="v-2644" font-size="33.599999999999994px" xml:space="preserve" y="216.9" font-weight="bold" text-anchor="middle" pointer-events="visible" font-family="Tahoma, Verdana, Helvetica, Arial" fill="#ffffff" dominant-baseline="hanging" transform="matrix(1,0,0,1,200,0)" style="fill: rgb(255, 255, 255);"><tspan  dy="0">Passageiro</tspan></text><text  id="v-2645" font-size="16.799999999999997px" xml:space="preserve" y="258.5" text-anchor="middle" font-family="Tahoma, Verdana, Helvetica, Arial" fill="#ffffff" dominant-baseline="hanging" transform="matrix(1,0,0,1,200,0)" style="display: block; fill: rgb(255, 255, 255);"><tspan  dy="0">[Person]</tspan></text><text  id="v-2646" font-size="24px" xml:space="preserve" y="290.3" text-anchor="middle" font-family="Tahoma, Verdana, Helvetica, Arial" fill="#ffffff" dominant-baseline="hanging" transform="matrix(1,0,0,1,200,0)" style="display: block; fill: rgb(255, 255, 255);"><tspan  dy="0">Solicita corridas pelo app e</tspan><tspan dy="1.2em" x="0" >recebe cotações</tspan></text><g  id="v-2647" font-weight="normal" text-anchor="middle" color="#ffffff" transform="matrix(1,0,0,1,197.5,368)" style="fill: rgb(255, 255, 255);" display="none"><g ></g><g ></g><g ></g><g ></g></g><image  id="v-2648"></image></g></g><!--z-index:19--><g   id="j_230"  transform="translate(200,892)" style=""><g  id="v-2654" style="opacity: 1;"><rect  x="0" y="160" width="400" height="240" rx="70" id="v-2656" stroke-width="2" pointer-events="visiblePainted" fill="#08427b" stroke="#073b6f" stroke-dasharray="" style="fill: rgb(8, 66, 123); stroke: rgb(7, 59, 111);"></rect><circle  cx="200" cy="88.88888888888889" r="88.88888888888889" id="v-2655" stroke-width="2" pointer-events="visiblePainted" fill="#08427b" stroke="#073b6f" stroke-dasharray="" style="fill: rgb(8, 66, 123); stroke: rgb(7, 59, 111);"></circle><line  x1="80" y1="266.6666666666667" x2="80" y2="400" id="v-2662" stroke="#073b6f" stroke-width="1" stroke-dasharray="" style="stroke: rgb(7, 59, 111);"></line><line  x1="320" y1="266.6666666666667" x2="320" y2="400" id="v-2663" stroke="#073b6f" stroke-width="1" stroke-dasharray="" style="stroke: rgb(7, 59, 111);"></line><text  id="v-2657" font-size="33.599999999999994px" xml:space="preserve" y="216.9" font-weight="bold" text-anchor="middle" pointer-events="visible" font-family="Tahoma, Verdana, Helvetica, Arial" fill="#ffffff" dominant-baseline="hanging" transform="matrix(1,0,0,1,200,0)" style="fill: rgb(255, 255, 255);"><tspan  dy="0">Motorista</tspan></text><text  id="v-2658" font-size="16.799999999999997px" xml:space="preserve" y="258.5" text-anchor="middle" font-family="Tahoma, Verdana, Helvetica, Arial" fill="#ffffff" dominant-baseline="hanging" transform="matrix(1,0,0,1,200,0)" style="display: block; fill: rgb(255, 255, 255);"><tspan  dy="0">[Person]</tspan></text><text  id="v-2659" font-size="24px" xml:space="preserve" y="290.3" text-anchor="middle" font-family="Tahoma, Verdana, Helvetica, Arial" fill="#ffffff" dominant-baseline="hanging" transform="matrix(1,0,0,1,200,0)" style="display: block; fill: rgb(255, 255, 255);"><tspan  dy="0">Recebe ofertas de corrida e</tspan><tspan dy="1.2em" x="0" >compartilha localização</tspan></text><g  id="v-2660" font-weight="normal" text-anchor="middle" color="#ffffff" transform="matrix(1,0,0,1,197.5,368)" style="fill: rgb(255, 255, 255);" display="none"><g ></g><g ></g><g ></g><g ></g></g><image  id="v-2661"></image></g></g><!--z-index:20--><g   id="j_231"  transform="translate(1730,142)" style=""><g  id="v-2670" style="opacity: 1;"><rect  id="v-2671" rx="1" ry="1" stroke-width="2" pointer-events="visiblePainted" fill="#999999" stroke="#8a8a8a" stroke-dasharray="" width="450" height="300" style="fill: rgb(153, 153, 153); stroke: rgb(138, 138, 138);"></rect><text  id="v-2672" font-size="33.599999999999994px" xml:space="preserve" y="66.74000000000001" font-weight="bold" text-anchor="middle" pointer-events="visible" font-family="Tahoma, Verdana, Helvetica, Arial" fill="#ffffff" dominant-baseline="hanging" transform="matrix(1,0,0,1,225,0)" style="fill: rgb(255, 255, 255);"><tspan  dy="0">Provedor de</tspan><tspan dy="1.2em" x="0" >Mapas/Trânsito</tspan></text><text  id="v-2673" font-size="16.799999999999997px" xml:space="preserve" y="148.66" text-anchor="middle" font-family="Tahoma, Verdana, Helvetica, Arial" fill="#ffffff" dominant-baseline="hanging" transform="matrix(1,0,0,1,225,0)" style="display: block; fill: rgb(255, 255, 255);"><tspan  dy="0">[Software System]</tspan></text><text  id="v-2674" font-size="24px" xml:space="preserve" y="180.45999999999998" text-anchor="middle" font-family="Tahoma, Verdana, Helvetica, Arial" fill="#ffffff" dominant-baseline="hanging" transform="matrix(1,0,0,1,225,0)" style="display: block; fill: rgb(255, 255, 255);"><tspan  dy="0">Rotas, ETA e condições de</tspan><tspan dy="1.2em" x="0" >tráfego</tspan></text><g  id="v-2675" color="#ffffff" transform="matrix(1,0,0,1,222.5,268)" style="fill: rgb(255, 255, 255);" display="none"><g ></g><g ></g><g ></g><g ></g></g><image  id="v-2676"></image></g></g><!--z-index:21--><g   id="j_232"  transform="translate(1730,492)" style=""><g  id="v-2680" style="opacity: 1;"><rect  id="v-2681" rx="1" ry="1" stroke-width="2" pointer-events="visiblePainted" fill="#999999" stroke="#8a8a8a" stroke-dasharray="" width="450" height="300" style="fill: rgb(153, 153, 153); stroke: rgb(138, 138, 138);"></rect><text  id="v-2682" font-size="33.599999999999994px" xml:space="preserve" y="81.14000000000001" font-weight="bold" text-anchor="middle" pointer-events="visible" font-family="Tahoma, Verdana, Helvetica, Arial" fill="#ffffff" dominant-baseline="hanging" transform="matrix(1,0,0,1,225,0)" style="fill: rgb(255, 255, 255);"><tspan  dy="0">Gateway de</tspan><tspan dy="1.2em" x="0" >Pagamentos</tspan></text><text  id="v-2683" font-size="16.799999999999997px" xml:space="preserve" y="163.06" text-anchor="middle" font-family="Tahoma, Verdana, Helvetica, Arial" fill="#ffffff" dominant-baseline="hanging" transform="matrix(1,0,0,1,225,0)" style="display: block; fill: rgb(255, 255, 255);"><tspan  dy="0">[Software System]</tspan></text><text  id="v-2684" font-size="24px" xml:space="preserve" y="194.86" text-anchor="middle" font-family="Tahoma, Verdana, Helvetica, Arial" fill="#ffffff" dominant-baseline="hanging" transform="matrix(1,0,0,1,225,0)" style="display: block; fill: rgb(255, 255, 255);"><tspan  dy="0">Cobrança e repasses</tspan></text><g  id="v-2685" color="#ffffff" transform="matrix(1,0,0,1,222.5,268)" style="fill: rgb(255, 255, 255);" display="none"><g ></g><g ></g><g ></g><g ></g></g><image  id="v-2686"></image></g></g><!--z-index:22--><g   id="j_233"  transform="translate(1730,842)" style=""><g  id="v-2693" style="opacity: 1;"><rect  id="v-2694" rx="1" ry="1" stroke-width="2" pointer-events="visiblePainted" fill="#999999" stroke="#8a8a8a" stroke-dasharray="" width="450" height="300" style="fill: rgb(153, 153, 153); stroke: rgb(138, 138, 138);"></rect><text  id="v-2695" font-size="33.599999999999994px" xml:space="preserve" y="66.74000000000001" font-weight="bold" text-anchor="middle" pointer-events="visible" font-family="Tahoma, Verdana, Helvetica, Arial" fill="#ffffff" dominant-baseline="hanging" transform="matrix(1,0,0,1,225,0)" style="fill: rgb(255, 255, 255);"><tspan  dy="0">Fontes de Contexto</tspan><tspan dy="1.2em" x="0" >Externo</tspan></text><text  id="v-2696" font-size="16.799999999999997px" xml:space="preserve" y="148.66" text-anchor="middle" font-family="Tahoma, Verdana, Helvetica, Arial" fill="#ffffff" dominant-baseline="hanging" transform="matrix(1,0,0,1,225,0)" style="display: block; fill: rgb(255, 255, 255);"><tspan  dy="0">[Software System]</tspan></text><text  id="v-2697" font-size="24px" xml:space="preserve" y="180.45999999999998" text-anchor="middle" font-family="Tahoma, Verdana, Helvetica, Arial" fill="#ffffff" dominant-baseline="hanging" transform="matrix(1,0,0,1,225,0)" style="display: block; fill: rgb(255, 255, 255);"><tspan  dy="0">Eventos, clima, calendário</tspan><tspan dy="1.2em" x="0" >urbano</tspan></text><g  id="v-2698" color="#ffffff" transform="matrix(1,0,0,1,222.5,268)" style="fill: rgb(255, 255, 255);" display="none"><g ></g><g ></g><g ></g><g ></g></g><image  id="v-2699"></image></g></g><!--z-index:23--><g   id="j_234"  transform="translate(1730,1192)" style=""><g  id="v-2706" style="opacity: 1;"><rect  id="v-2707" rx="1" ry="1" stroke-width="2" pointer-events="visiblePainted" fill="#999999" stroke="#8a8a8a" stroke-dasharray="" width="450" height="300" style="fill: rgb(153, 153, 153); stroke: rgb(138, 138, 138);"></rect><text  id="v-2708" font-size="33.599999999999994px" xml:space="preserve" y="81.14000000000001" font-weight="bold" text-anchor="middle" pointer-events="visible" font-family="Tahoma, Verdana, Helvetica, Arial" fill="#ffffff" dominant-baseline="hanging" transform="matrix(1,0,0,1,225,0)" style="fill: rgb(255, 255, 255);"><tspan  dy="0">Serviço de</tspan><tspan dy="1.2em" x="0" >Notificações Push</tspan></text><text  id="v-2709" font-size="16.799999999999997px" xml:space="preserve" y="163.06" text-anchor="middle" font-family="Tahoma, Verdana, Helvetica, Arial" fill="#ffffff" dominant-baseline="hanging" transform="matrix(1,0,0,1,225,0)" style="display: block; fill: rgb(255, 255, 255);"><tspan  dy="0">[Software System]</tspan></text><text  id="v-2710" font-size="24px" xml:space="preserve" y="194.86" text-anchor="middle" font-family="Tahoma, Verdana, Helvetica, Arial" fill="#ffffff" dominant-baseline="hanging" transform="matrix(1,0,0,1,225,0)" style="display: block; fill: rgb(255, 255, 255);"><tspan  dy="0">Entrega de ofertas e avisos</tspan></text><g  id="v-2711" color="#ffffff" transform="matrix(1,0,0,1,222.5,268)" style="fill: rgb(255, 255, 255);" display="none"><g ></g><g ></g><g ></g><g ></g></g><image  id="v-2712"></image></g></g><!--z-index:24--><g   id="j_235"  transform="translate(940,667)" style=""><g  id="v-2719" style="opacity: 1;"><rect  id="v-2720" rx="1" ry="1" stroke-width="2" pointer-events="visiblePainted" fill="#1168bd" stroke="#0f5eaa" stroke-dasharray="" width="450" height="300" style="fill: rgb(17, 104, 189); stroke: rgb(15, 94, 170);"></rect><text  id="v-2721" font-size="33.599999999999994px" xml:space="preserve" y="32.18000000000002" font-weight="bold" text-anchor="middle" pointer-events="visible" font-family="Tahoma, Verdana, Helvetica, Arial" fill="#ffffff" dominant-baseline="hanging" transform="matrix(1,0,0,1,225,0)" style="fill: rgb(255, 255, 255);"><tspan  dy="0">Plataforma de</tspan><tspan dy="1.2em" x="0" >Mobilidade - Núcleo de</tspan><tspan dy="1.2em" x="0" >Matching e Pricing</tspan></text><text  id="v-2722" font-size="16.799999999999997px" xml:space="preserve" y="154.42000000000002" text-anchor="middle" font-family="Tahoma, Verdana, Helvetica, Arial" fill="#ffffff" dominant-baseline="hanging" transform="matrix(1,0,0,1,225,0)" style="display: block; fill: rgb(255, 255, 255);"><tspan  dy="0">[Software System]</tspan></text><text  id="v-2723" font-size="24px" xml:space="preserve" y="186.21999999999997" text-anchor="middle" font-family="Tahoma, Verdana, Helvetica, Arial" fill="#ffffff" dominant-baseline="hanging" transform="matrix(1,0,0,1,225,0)" style="display: block; fill: rgb(255, 255, 255);"><tspan  dy="0">Casa passageiros e motoristas e</tspan><tspan dy="1.2em" x="0" >precifica corridas em tempo</tspan><tspan dy="1.2em" x="0" >real usando ML</tspan></text><g  id="v-2724" color="#ffffff" transform="matrix(1,0,0,1,210,268)" style="fill: rgb(255, 255, 255);" display="none"><g  transform="translate(5 0)"><svg xmlns="http://www.w3.org/2000/svg" width="20" height="20" fill="currentColor" viewBox="0 0 16 16"><path fill-rule="evenodd" d="M6.5 12a5.5 5.5 0 1 0 0-11 5.5 5.5 0 0 0 0 11zM13 6.5a6.5 6.5 0 1 1-13 0 6.5 6.5 0 0 1 13 0z"></path><path d="M10.344 11.742c.03.04.062.078.098.115l3.85 3.85a1 1 0 0 0 1.415-1.414l-3.85-3.85a1.007 1.007 0 0 0-.115-.1 6.538 6.538 0 0 1-1.398 1.4z"></path><path fill-rule="evenodd" d="M6.5 3a.5.5 0 0 1 .5.5V6h2.5a.5.5 0 0 1 0 1H7v2.5a.5.5 0 0 1-1 0V7H3.5a.5.5 0 0 1 0-1H6V3.5a.5.5 0 0 1 .5-.5z"></path></svg></g><g ></g><g ></g><g ></g></g><image  id="v-2725"></image></g></g><!--z-index:25--><g   id="j_236"  style="opacity: 1;"><path fill="none" cursor="pointer" stroke="transparent" stroke-linecap="round" joint-selector="wrapper" id="v-2737" stroke-width="10" stroke-linejoin="round" d="M 600 642 L 760 642 C 766.6666666666665 642 772.9999999999999 643.3333333333333 779 646 L 940 717.32"></path><path fill="none" pointer-events="none" joint-selector="line" id="v-2736" stroke="#444444" stroke-width="2" stroke-linejoin="round" stroke-dasharray="8 8" d="M 600 642 L 760 642 C 766.6666666666665 642 772.9999999999999 643.3333333333333 779 646 L 940 717.32" marker-end="url(#v-21252848929)"></path><g id="v-2729" ><g id="v-2730"  label-idx="0" cursor="move" transform="matrix(1,0,0,1,769.787109375,643.0078125)" style="cursor: default;"><rect joint-selector="rect" id="v-2733" fill="#ffffff" rx="3" ry="3" x="-93.70558166503906" y="-45.953487396240234" width="187.70635986328125" height="88.59535217285156" pointer-events="none"  style="display: block;"></rect><text joint-selector="text" id="v-2732" font-size="24px" xml:space="preserve" fill="#444444" text-anchor="middle" pointer-events="none" font-family="Tahoma, Verdana, Helvetica, Arial" font-weight="normal"  style="display: block;"><tspan  dy="-0.8999999999999999em">Solicita corrida,</tspan><tspan dy="1.2em" x="0" >recebe preço e</tspan><tspan dy="1.2em" x="0" >status</tspan></text></g><g id="v-2731"  label-idx="1" cursor="move" transform="matrix(1,0,0,1,759.787109375,683.8078002929688)" style="cursor: default;"><rect joint-selector="rect" id="v-2735" fill="#ffffff" rx="3" ry="3" x="0" y="0" width="0" height="0"  display="none"></rect><text joint-selector="text" id="v-2734" fill="#000000" font-size="14" text-anchor="middle" text-vertical-anchor="middle" pointer-events="none"></text></g></g></g><!--z-index:26--><g   id="j_237"  style="opacity: 1;"><path fill="none" cursor="pointer" stroke="transparent" stroke-linecap="round" joint-selector="wrapper" id="v-2751" stroke-width="10" stroke-linejoin="round" d="M 600 1092 L 760 1092 C 766.6666666666665 1092 772.6666666666665 1090 778 1086 L 949.55 967"></path><path fill="none" pointer-events="none" joint-selector="line" id="v-2750" stroke="#444444" stroke-width="2" stroke-linejoin="round" stroke-dasharray="8 8" d="M 600 1092 L 760 1092 C 766.6666666666665 1092 772.6666666666665 1090 778 1086 L 949.55 967" marker-end="url(#v-21252848929)"></path><g id="v-2743" ><g id="v-2744"  label-idx="0" cursor="move" transform="matrix(1,0,0,1,769.53515625,1090.48828125)" style="cursor: default;"><rect joint-selector="rect" id="v-2747" fill="#ffffff" rx="3" ry="3" x="-91.5654296875" y="-60.35348892211914" width="183.130859375" height="117.39535522460938" pointer-events="none"  style="display: block;"></rect><text joint-selector="text" id="v-2746" font-size="24px" xml:space="preserve" fill="#444444" text-anchor="middle" pointer-events="none" font-family="Tahoma, Verdana, Helvetica, Arial" font-weight="normal"  style="display: block;"><tspan  dy="-1.4999999999999998em">Envia</tspan><tspan dy="1.2em" x="0" >localização,</tspan><tspan dy="1.2em" x="0" >recebe e aceita</tspan><tspan dy="1.2em" x="0" >ofertas</tspan></text></g><g id="v-2745"  label-idx="1" cursor="move" transform="matrix(1,0,0,1,759.53515625,1145.688232421875)" style="cursor: default;"><rect joint-selector="rect" id="v-2749" fill="#ffffff" rx="3" ry="3" x="0" y="-1.1368683772161603e-13" width="0" height="0"  display="none"></rect><text joint-selector="text" id="v-2748" fill="#000000" font-size="14" text-anchor="middle" text-vertical-anchor="middle" pointer-events="none"></text></g></g></g><!--z-index:27--><g   id="j_238"  style="opacity: 1;"><path fill="none" cursor="pointer" stroke="transparent" stroke-linecap="round" joint-selector="wrapper" id="v-2766" stroke-width="10" stroke-linejoin="round" d="M 1277.86 667 L 1554 300 C 1558 294.66666666666663 1563.3333333333333 292 1570 292 L 1730 292"></path><path fill="none" pointer-events="none" joint-selector="line" id="v-2765" stroke="#444444" stroke-width="2" stroke-linejoin="round" stroke-dasharray="8 8" d="M 1277.86 667 L 1554 300 C 1558 294.66666666666663 1563.3333333333333 292 1570 292 L 1730 292" marker-end="url(#v-21252848929)"></path><g id="v-2755" ><g id="v-2756"  label-idx="0" cursor="move" transform="matrix(1,0,0,1,1560.719970703125,280.74310302734375)" style="cursor: default;"><rect joint-selector="rect" id="v-2760" fill="#ffffff" rx="3" ry="3" x="-98.33643341064453" y="-31.553489685058594" width="196.67288208007812" height="59.79534912109375" pointer-events="none"  style="display: block;"></rect><text joint-selector="text" id="v-2759" font-size="24px" xml:space="preserve" fill="#444444" text-anchor="middle" pointer-events="none" font-family="Tahoma, Verdana, Helvetica, Arial" font-weight="normal"  style="display: block;"><tspan  dy="-0.3em">Consulta rotas e</tspan><tspan dy="1.2em" x="0" >ETA</tspan></text></g><g id="v-2757"  label-idx="1" cursor="move" transform="matrix(1,0,0,1,1560.719970703125,325.5430908203125)" style="cursor: default;"><rect joint-selector="rect" id="v-2762" fill="#ffffff" rx="3" ry="3" x="-52.972496032714844" y="-13.85999870300293" width="105.94499206542969" height="23.099998474121094"  pointer-events="none" style="display: block;"></rect><text joint-selector="text" id="v-2761" font-size="16.799999999999997px" xml:space="preserve" fill="#444444" text-anchor="middle" pointer-events="none" font-family="Tahoma, Verdana, Helvetica, Arial" font-weight="normal"  style="display: block;"><tspan  dy="0.3em">[HTTPS/API]</tspan></text></g><g id="v-2758"  label-idx="2" cursor="move" transform="matrix(1,0,0,1,1459.622314453125,451.94091796875)" style="cursor: default;"><rect joint-selector="rect" id="v-2764" fill="#ffffff" rx="3" ry="3" x="0" y="0" width="0" height="0"  display="none"></rect><text joint-selector="text" id="v-2763" fill="#000000" font-size="14" text-anchor="middle" text-vertical-anchor="middle" pointer-events="none"></text></g></g></g><!--z-index:28--><g   id="j_239"  style="opacity: 1;"><path fill="none" cursor="pointer" stroke="transparent" stroke-linecap="round" joint-selector="wrapper" id="v-2781" stroke-width="10" stroke-linejoin="round" d="M 1390 717.32 L 1551 646 C 1557 643.3333333333333 1563.3333333333333 642 1570 642 L 1730 642"></path><path fill="none" pointer-events="none" joint-selector="line" id="v-2780" stroke="#444444" stroke-width="2" stroke-linejoin="round" stroke-dasharray="8 8" d="M 1390 717.32 L 1551 646 C 1557 643.3333333333333 1563.3333333333333 642 1570 642 L 1730 642" marker-end="url(#v-21252848929)"></path><g id="v-2770" ><g id="v-2771"  label-idx="0" cursor="move" transform="matrix(1,0,0,1,1560.212890625,629.6078491210938)" style="cursor: default;"><rect joint-selector="rect" id="v-2775" fill="#ffffff" rx="3" ry="3" x="-86.58403015136719" y="-45.953487396240234" width="173.16806030273438" height="88.59535217285156" pointer-events="none"  style="display: block;"></rect><text joint-selector="text" id="v-2774" font-size="24px" xml:space="preserve" fill="#444444" text-anchor="middle" pointer-events="none" font-family="Tahoma, Verdana, Helvetica, Arial" font-weight="normal"  style="display: block;"><tspan  dy="-0.8999999999999999em">Processa</tspan><tspan dy="1.2em" x="0" >pagamento da</tspan><tspan dy="1.2em" x="0" >viagem</tspan></text></g><g id="v-2772"  label-idx="1" cursor="move" transform="matrix(1,0,0,1,1560.212890625,688.8078002929688)" style="cursor: default;"><rect joint-selector="rect" id="v-2777" fill="#ffffff" rx="3" ry="3" x="-52.972496032714844" y="-13.85999870300293" width="105.94499206542969" height="23.099998474121094"  pointer-events="none" style="display: block;"></rect><text joint-selector="text" id="v-2776" font-size="16.799999999999997px" xml:space="preserve" fill="#444444" text-anchor="middle" pointer-events="none" font-family="Tahoma, Verdana, Helvetica, Arial" font-weight="normal"  style="display: block;"><tspan  dy="0.3em">[HTTPS/API]</tspan></text></g><g id="v-2773"  label-idx="2" cursor="move" transform="matrix(1,0,0,1,1542.5897216796875,699.5277709960938)" style="cursor: default;"><rect joint-selector="rect" id="v-2779" fill="#ffffff" rx="3" ry="3" x="-2.2737367544323206e-13" y="-1.1368683772161603e-13" width="0" height="0"  display="none"></rect><text joint-selector="text" id="v-2778" fill="#000000" font-size="14" text-anchor="middle" text-vertical-anchor="middle" pointer-events="none"></text></g></g></g><!--z-index:29--><g   id="j_240"  style="opacity: 1;"><path fill="none" cursor="pointer" stroke="transparent" stroke-linecap="round" joint-selector="wrapper" id="v-2796" stroke-width="10" stroke-linejoin="round" d="M 1390 916.68 L 1551 988 C 1557 990.6666666666665 1563.3333333333333 991.9999999999999 1570 992 L 1730 992" style="stroke-width: 10px;"></path><path fill="none" pointer-events="none" joint-selector="line" id="v-2795" stroke="#444444" stroke-width="2" stroke-linejoin="round" stroke-dasharray="8 8" d="M 1390 916.68 L 1551 988 C 1557 990.6666666666665 1563.3333333333333 991.9999999999999 1570 992 L 1730 992" marker-end="url(#v-21252848929)"></path><g id="v-2785" ><g id="v-2786"  label-idx="0" cursor="move" transform="matrix(1,0,0,1,1560.212890625,977.5921630859375)" style="cursor: default;"><rect joint-selector="rect" id="v-2790" fill="#ffffff" rx="3" ry="3" x="-96.12248229980469" y="-31.553489685058594" width="192.24496459960938" height="59.79534912109375" pointer-events="none"  style="display: block;"></rect><text joint-selector="text" id="v-2789" font-size="24px" xml:space="preserve" fill="#444444" text-anchor="middle" pointer-events="none" font-family="Tahoma, Verdana, Helvetica, Arial" font-weight="normal"  style="display: block;"><tspan  dy="-0.3em">Coleta sinais de</tspan><tspan dy="1.2em" x="0" >demanda futura</tspan></text></g><g id="v-2787"  label-idx="1" cursor="move" transform="matrix(1,0,0,1,1560.212890625,1022.3921508789062)" style="cursor: default;"><rect joint-selector="rect" id="v-2792" fill="#ffffff" rx="3" ry="3" x="-52.972496032714844" y="-13.85999870300293" width="105.94499206542969" height="23.099998474121094"  pointer-events="none" style="display: block;"></rect><text joint-selector="text" id="v-2791" font-size="16.799999999999997px" xml:space="preserve" fill="#444444" text-anchor="middle" pointer-events="none" font-family="Tahoma, Verdana, Helvetica, Arial" font-weight="normal"  style="display: block;"><tspan  dy="0.3em">[HTTPS/API]</tspan></text></g><g id="v-2788"  label-idx="2" cursor="move" transform="matrix(1,0,0,1,1542.5897216796875,1028.47216796875)" style="cursor: default;"><rect joint-selector="rect" id="v-2794" fill="#ffffff" rx="3" ry="3" x="-2.2737367544323206e-13" y="0" width="0" height="0"  display="none"></rect><text joint-selector="text" id="v-2793" fill="#000000" font-size="14" text-anchor="middle" text-vertical-anchor="middle" pointer-events="none"></text></g></g></g><!--z-index:30--><g   id="j_241"  style="opacity: 1;"><path fill="none" cursor="pointer" stroke="transparent" stroke-linecap="round" joint-selector="wrapper" id="v-2811" stroke-width="10" stroke-linejoin="round" d="M 1277.86 967 L 1554 1334 C 1558 1339.3333333333333 1563.3333333333333 1342 1570 1342 L 1730 1342" style="stroke-width: 10px;"></path><path fill="none" pointer-events="none" joint-selector="line" id="v-2810" stroke="#444444" stroke-width="2" stroke-linejoin="round" stroke-dasharray="8 8" d="M 1277.86 967 L 1554 1334 C 1558 1339.3333333333333 1563.3333333333333 1342 1570 1342 L 1730 1342" marker-end="url(#v-21252848929)"></path><g id="v-2800" ><g id="v-2801"  label-idx="0" cursor="move" transform="matrix(1,0,0,1,1560.719970703125,1326.4569091796875)" style="cursor: default;"><rect joint-selector="rect" id="v-2805" fill="#ffffff" rx="3" ry="3" x="-91.62077331542969" y="-31.553489685058594" width="184.86512756347656" height="59.79534912109375" pointer-events="none"  style="display: block;"></rect><text joint-selector="text" id="v-2804" font-size="24px" xml:space="preserve" fill="#444444" text-anchor="middle" pointer-events="none" font-family="Tahoma, Verdana, Helvetica, Arial" font-weight="normal"  style="display: block;"><tspan  dy="-0.3em">Dispara ofertas</tspan><tspan dy="1.2em" x="0" >e atualizações</tspan></text></g><g id="v-2802"  label-idx="1" cursor="move" transform="matrix(1,0,0,1,1560.719970703125,1371.2569580078125)" style="cursor: default;"><rect joint-selector="rect" id="v-2807" fill="#ffffff" rx="3" ry="3" x="-52.972496032714844" y="-13.85999870300293" width="105.94499206542969" height="23.099998474121094"  pointer-events="none" style="display: block;"></rect><text joint-selector="text" id="v-2806" font-size="16.799999999999997px" xml:space="preserve" fill="#444444" text-anchor="middle" pointer-events="none" font-family="Tahoma, Verdana, Helvetica, Arial" font-weight="normal"  style="display: block;"><tspan  dy="0.3em">[HTTPS/API]</tspan></text></g><g id="v-2803"  label-idx="2" cursor="move" transform="matrix(1,0,0,1,1459.622314453125,1261.6590576171875)" style="cursor: default;"><rect joint-selector="rect" id="v-2809" fill="#ffffff" rx="3" ry="3" x="0" y="-2.2737367544323206e-13" width="0" height="0"  display="none"></rect><text joint-selector="text" id="v-2808" fill="#000000" font-size="14" text-anchor="middle" text-vertical-anchor="middle" pointer-events="none"></text></g></g></g><!--z-index:31--><!--z-index:32--><!--z-index:33--><!--z-index:34--><!--z-index:35--><!--z-index:36--><!--z-index:37--><!--z-index:38--><!--z-index:39--><!--z-index:40--><!--z-index:41--><!--z-index:42--><!--z-index:43--><!--z-index:44--><!--z-index:45--><!--z-index:46--><!--z-index:47--><!--z-index:48--><!--z-index:49--><!--z-index:50--><!--z-index:51--><!--z-index:52--><!--z-index:53--><!--z-index:54--><!--z-index:55--><!--z-index:56--><!--z-index:57--><!--z-index:58--><!--z-index:59--><!--z-index:60--><!--z-index:61--><!--z-index:62--><!--z-index:63--><!--z-index:64--><!--z-index:65--><!--z-index:66--><!--z-index:67--><!--z-index:68--><!--z-index:69--><!--z-index:70--><!--z-index:71--><!--z-index:72--><!--z-index:73--><!--z-index:74--><!--z-index:75--><!--z-index:76--><!--z-index:77--><!--z-index:78--><!--z-index:79--><!--z-index:80--><!--z-index:81--><!--z-index:82--><!--z-index:83--><!--z-index:84--><!--z-index:85--><!--z-index:86--><!--z-index:87--><!--z-index:88--><!--z-index:89--></g><g  style="user-select: none;"></g><g ></g><g  display="none"></g></g></svg>